<?xml version="1.0" standalone="no"?>
<!DOCTYPE svg PUBLIC "-//W3C//DTD SVG 20010904//EN"
 "http://www.w3.org/TR/2001/REC-SVG-20010904/DTD/svg10.dtd">
<svg version="1.0" xmlns="http://www.w3.org/2000/svg"
 width="1200.000000pt" height="1200.000000pt" viewBox="0 0 1200.000000 1200.000000"
 preserveAspectRatio="xMidYMid meet">

<g transform="translate(0.000000,1200.000000) scale(0.100000,-0.100000)"
fill="#000000" stroke="none">
<path d="M5658 9038 l342 -343 342 343 343 342 -685 0 -685 0 343 -342z"/>
<path d="M3580 7362 l0 -2012 248 0 247 0 123 123 122 122 0 1526 0 1526 -273
269 c-150 148 -317 311 -370 363 l-97 95 0 -2012z"/>
<path d="M8047 9002 l-367 -367 0 -1638 0 -1637 370 0 370 0 0 2005 c0 1103
-1 2005 -3 2005 -1 0 -167 -165 -370 -368z"/>
<path d="M4600 7187 c0 -636 3 -1157 7 -1157 4 0 171 163 370 362 l363 363 0
425 0 425 -370 370 -370 370 0 -1158z"/>
<path d="M4868 5840 l-483 -479 488 -1 487 0 0 480 c0 264 -2 480 -4 480 -2 0
-222 -216 -488 -480z"/>
<path d="M10393 4499 c-12 -6 -23 -19 -25 -28 -2 -9 -4 -159 -3 -334 1 -343
-2 -329 53 -343 30 -8 73 11 79 36 5 19 7 18 39 -9 80 -71 193 -42 243 62 27
56 30 210 5 260 -58 114 -167 141 -251 64 l-23 -20 0 145 c0 113 -3 148 -14
157 -20 17 -77 22 -103 10z m243 -400 c15 -16 19 -36 19 -86 0 -56 -3 -67 -24
-84 -32 -26 -63 -24 -95 7 -34 35 -37 117 -5 158 26 33 77 36 105 5z"/>
<path d="M1210 4471 c-16 -30 -12 -76 8 -94 15 -14 40 -17 130 -17 62 0 112
-2 112 -5 0 -2 -63 -116 -140 -253 -77 -137 -140 -257 -140 -268 0 -41 14 -44
246 -44 246 0 246 0 246 65 0 61 -8 64 -162 67 l-139 3 131 230 c155 274 162
289 148 315 -10 19 -22 20 -220 20 -197 0 -210 -1 -220 -19z"/>
<path d="M1838 4479 c-16 -9 -18 -33 -18 -262 0 -153 4 -268 11 -292 15 -53
73 -110 129 -125 100 -27 223 -8 279 43 56 52 61 79 61 364 0 249 -1 263 -19
273 -29 15 -83 12 -109 -6 -22 -15 -22 -18 -22 -262 -1 -269 -2 -275 -57 -291
-43 -12 -80 -3 -103 27 -19 23 -20 41 -20 268 0 240 0 243 -22 258 -25 18 -84
21 -110 5z"/>
<path d="M2522 4474 c-22 -15 -22 -16 -22 -334 0 -318 0 -319 22 -334 18 -13
55 -16 195 -16 160 0 173 1 183 19 5 11 10 32 10 46 0 61 -9 65 -140 65 l-120
0 0 275 c0 261 -1 275 -19 285 -29 15 -83 12 -109 -6z"/>
<path d="M3078 4479 c-16 -9 -18 -33 -18 -262 0 -153 4 -268 11 -292 15 -53
73 -110 129 -125 100 -27 223 -8 279 43 56 52 61 79 61 364 0 249 -1 263 -19
273 -29 15 -83 12 -109 -6 -22 -15 -22 -18 -22 -262 -1 -269 -2 -275 -57 -291
-43 -12 -80 -3 -103 27 -19 23 -20 41 -20 268 0 240 0 243 -22 258 -25 18 -84
21 -110 5z"/>
<path d="M4042 4474 c-22 -15 -22 -16 -22 -334 0 -318 0 -319 22 -334 12 -9
36 -16 53 -16 17 0 41 7 53 16 22 15 22 16 22 339 0 310 -1 325 -19 335 -29
15 -83 12 -109 -6z"/>
<path d="M9112 4474 c-22 -15 -22 -16 -22 -334 0 -318 0 -319 22 -334 12 -9
36 -16 53 -16 17 0 41 7 53 16 21 14 22 22 22 155 l0 139 95 0 95 0 0 -133 c0
-91 4 -139 13 -150 18 -26 81 -33 112 -13 l25 16 0 325 c0 310 -1 325 -19 335
-29 15 -83 12 -109 -6 -21 -14 -22 -22 -22 -140 l0 -124 -95 0 -95 0 0 130 c0
118 -2 130 -19 140 -29 15 -83 12 -109 -6z"/>
<path d="M6726 4424 c-24 -23 -24 -485 0 -544 23 -57 69 -82 160 -88 83 -5
114 10 114 55 0 45 -17 63 -61 63 -75 0 -79 7 -79 125 l0 105 58 0 c66 0 82
11 82 55 0 44 -16 55 -82 55 l-58 0 0 85 c0 73 -3 86 -19 95 -30 15 -97 12
-115 -6z"/>
<path d="M4390 4239 c-13 -5 -28 -15 -32 -22 -14 -21 -10 -381 5 -400 18 -26
81 -33 112 -13 25 16 25 19 25 146 0 117 2 132 20 150 26 26 72 26 96 -1 16
-18 20 -42 24 -157 l5 -136 33 -10 c20 -5 44 -5 65 0 l32 10 3 144 c2 112 -1
154 -13 186 -42 111 -160 149 -244 78 -22 -18 -31 -22 -31 -11 0 32 -58 53
-100 36z"/>
<path d="M4943 4230 c-18 -11 -33 -25 -33 -31 0 -21 173 -394 189 -406 8 -7
31 -13 51 -13 20 0 44 6 53 13 18 13 187 377 187 402 0 24 -60 56 -99 53 -33
-3 -34 -4 -84 -130 -28 -71 -53 -128 -56 -128 -3 0 -28 58 -56 128 l-50 127
-35 3 c-22 1 -47 -5 -67 -18z"/>
<path d="M5631 4224 c-38 -19 -62 -40 -82 -72 -26 -41 -29 -55 -29 -128 0 -93
10 -127 48 -167 42 -44 97 -68 170 -73 81 -5 156 18 185 57 18 25 18 28 3 58
-19 35 -36 38 -89 16 -43 -18 -116 -19 -138 -2 -15 11 -39 49 -39 61 0 3 49 6
110 6 157 0 179 15 167 116 -9 88 -82 145 -192 152 -50 3 -69 -1 -114 -24z
m157 -97 c7 -6 12 -22 10 -36 -3 -24 -7 -26 -62 -29 -68 -4 -81 4 -67 42 17
42 79 55 119 23z"/>
<path d="M6140 4239 c-13 -5 -28 -15 -32 -22 -14 -21 -10 -381 5 -400 18 -26
81 -33 112 -13 25 16 25 19 25 146 0 117 2 132 20 150 26 26 72 26 96 -1 16
-18 20 -42 24 -157 l5 -136 33 -10 c20 -5 44 -5 65 0 l32 10 3 144 c2 112 -1
154 -13 186 -42 111 -160 149 -244 78 -22 -18 -31 -22 -31 -11 0 32 -58 53
-100 36z"/>
<path d="M7251 4224 c-38 -19 -62 -40 -82 -72 -26 -41 -29 -55 -29 -129 0
-123 34 -179 134 -224 90 -39 201 -6 260 79 25 35 31 55 34 112 6 98 -4 135
-46 182 -73 81 -174 100 -271 52z m153 -126 c10 -15 16 -45 16 -85 0 -51 -4
-66 -22 -83 -27 -25 -62 -26 -87 -1 -37 37 -40 134 -4 173 23 26 78 24 97 -4z"/>
<path d="M7780 4239 c-13 -5 -28 -15 -32 -22 -14 -21 -10 -381 5 -400 18 -26
81 -33 112 -13 24 16 25 21 25 112 0 138 35 204 107 204 47 0 88 41 78 78 -10
42 -24 52 -72 52 -39 0 -51 -5 -84 -39 -36 -35 -39 -37 -39 -16 0 40 -53 63
-100 44z"/>
<path d="M8208 4221 l-33 -30 88 -175 c86 -174 99 -216 77 -257 -14 -24 -61
-49 -97 -49 -40 0 -53 -12 -59 -52 -7 -42 21 -78 61 -78 69 0 130 23 171 64
35 35 54 76 138 285 62 156 95 252 92 266 -7 28 -63 58 -100 53 -29 -3 -31 -7
-70 -135 -22 -73 -42 -133 -45 -133 -3 0 -19 33 -35 73 -16 39 -41 100 -57
135 -26 59 -29 62 -63 62 -25 0 -45 -9 -68 -29z"/>
<path d="M9783 4235 l-33 -14 0 -136 c0 -144 10 -187 53 -233 52 -56 149 -83
225 -62 47 12 115 67 138 111 20 39 20 311 1 328 -23 18 -70 22 -97 8 -24 -12
-25 -16 -30 -151 -5 -130 -6 -139 -29 -157 -31 -25 -63 -24 -89 4 -20 21 -22
34 -22 149 0 106 -3 127 -17 141 -27 24 -64 28 -100 12z"/>
<path d="M5303 3134 c-10 -26 9 -33 98 -36 l87 -3 -100 -183 c-54 -101 -96
-187 -93 -192 4 -6 64 -10 136 -10 120 0 129 1 129 19 0 25 -10 27 -112 26
-49 0 -88 1 -88 4 0 2 43 84 95 181 52 97 95 184 95 194 0 14 -15 16 -120 16
-100 0 -122 -3 -127 -16z"/>
<path d="M5687 3144 c-4 -4 -7 -81 -7 -171 0 -186 9 -221 61 -248 49 -26 132
-16 167 19 l27 26 0 188 c0 180 -1 187 -20 187 -19 0 -20 -8 -23 -177 l-2
-177 -27 -20 c-32 -26 -74 -27 -104 -2 -23 19 -24 25 -29 197 -4 151 -7 179
-20 182 -9 1 -19 0 -23 -4z"/>
<path d="M6085 3138 c-3 -7 -4 -106 -3 -218 l3 -205 113 -3 c107 -3 112 -2
112 18 0 22 1 22 -102 24 l-73 1 -5 195 c-5 175 -7 195 -23 198 -9 2 -19 -3
-22 -10z"/>
<path d="M6417 3144 c-4 -4 -7 -81 -7 -171 0 -186 9 -221 61 -248 49 -26 132
-16 167 19 l27 26 0 188 c0 180 -1 187 -20 187 -19 0 -20 -8 -23 -177 l-2
-177 -27 -20 c-32 -26 -74 -27 -104 -2 -23 19 -24 25 -29 197 -4 151 -7 179
-20 182 -9 1 -19 0 -23 -4z"/>
</g>
</svg>
